# xmcd CD database file
#
# Track frame offsets:
#	150
#	25039
#	41835
#	58254
#	73199
#	91087
#	123056
#	140563
#	160571
#	177334
#	200249
#	216156
#	233988
#
# Disc length: 3351 seconds
#
# Revision: 1
# Processed by: cddbd v1.5.1PL2 Copyright (c) Steve Scherf et al.
# Submitted via: jetAudio 5
#
DISCID=bb0d150d
DTITLE=Rusty Wright Blues - Ain't No Good Life
DYEAR=1900
DGENRE=
TTITLE0=Ain't No Good Life
TTITLE1=I Ain't From Mississippi
TTITLE2=The Fool Will Do
TTITLE3=Hang Dog
TTITLE4=Do It Again
TTITLE5=Summertime
TTITLE6=Nasty Reputation
TTITLE7=Somethin' Missin'
TTITLE8=Long Time Comin'
TTITLE9=Missin' You
TTITLE10=Don't Need Yo Bad Mind
TTITLE11=Toppy
TTITLE12=Hell On My Heels
EXTD=
EXTT0=
EXTT1=
EXTT2=
EXTT3=
EXTT4=
EXTT5=
EXTT6=
EXTT7=
EXTT8=
EXTT9=
EXTT10=
EXTT11=
EXTT12=
PLAYORDER=
